<svg clip-rule="evenodd" fill-rule="evenodd" stroke-linejoin="round" stroke-miterlimit="2" viewBox="0 0 24 24" xmlns="http://www.w3.org/2000/svg"><g id="Icon"><g><path d="m6.686 19.196c-.141 0-.271-.059-.362-.156l-.001-.001-4.348-4.592c-.11-.117-.158-.28-.128-.437.03-.158.134-.292.28-.36l1.812-.845c.162-.075.351-.059.497.042 0 0 1.666 1.156 1.666 1.156s4.087-1.906 4.087-1.906l-3.347-3.204c-.119-.114-.174-.28-.147-.443.026-.163.132-.302.282-.372l2.718-1.268c.154-.071.334-.06.478.031l4.803 3.024 2.497-1.164c2.252-1.051 4.93-.076 5.98 2.176.056.12.062.258.017.383-.046.124-.139.226-.259.282l-4.758 2.218-.211.047.211-.047-4.078 1.902-4.305 2.008-.211.047.211-.047-3.172 1.479c-.01.004-.019.008-.029.012l-.022.008-.016.005-.01.003-.026.007c-.01.002-.021.004-.031.006l-.023.003-.021.001c-.011.001-.022.002-.034.002zm11.344-6.342-4.078 1.902c-.212.099-.212.099 0 0l-4.305 2.007-2.845 1.327-3.624-3.827s.924-.431.924-.431 1.666 1.156 1.666 1.156c.147.102.335.118.497.043l5.01-2.337c.149-.069.255-.208.282-.371.026-.163-.029-.329-.148-.443l-3.347-3.204s1.809-.844 1.809-.844 4.803 3.024 4.803 3.024c.144.091.323.102.478.031l2.744-1.28c1.598-.745 3.471-.18 4.407 1.255 0 0-4.272 1.992-4.272 1.992z"></path><path d="m2.035 21.236h20c.276 0 .5-.224.5-.5s-.224-.5-.5-.5h-20c-.276 0-.5.224-.5.5s.224.5.5.5z"></path></g></g></svg>