<svg clip-rule="evenodd" fill-rule="evenodd" stroke-linejoin="round" stroke-miterlimit="2" viewBox="0 0 24 24" xmlns="http://www.w3.org/2000/svg"><g id="Icon"><g><path d="m2 21.5h20c.276 0 .5-.224.5-.5s-.224-.5-.5-.5h-20c-.276 0-.5.224-.5.5s.224.5.5.5z"></path><path d="m2.468 11.519c-.091-.108-.129-.246-.114-.379l.723-6.283c.019-.159.113-.301.253-.379s.31-.085.455-.017l1.813.845c.161.076.27.231.287.408 0 0 .185 2.019.185 2.019s4.088 1.906 4.088 1.906l.303-4.624c.01-.164.102-.313.244-.397s.316-.093.466-.023l2.719 1.268c.154.072.261.217.284.385l.77 5.623 2.497 1.165c2.252 1.05 3.227 3.727 2.177 5.98-.056.12-.158.213-.282.258-.125.046-.263.04-.383-.016l-4.758-2.219-.172-.132.172.132-4.078-1.902-4.305-2.007-.172-.132.172.132-3.172-1.479c-.01-.005-.019-.01-.028-.015l-.02-.011-.014-.009-.009-.006-.022-.016c-.008-.006-.017-.013-.025-.02l-.017-.015-.015-.015c-.007-.008-.015-.017-.022-.025zm12.149 4.614-4.078-1.902c-.212-.099-.212-.099 0 0l-4.305-2.008-2.845-1.326.602-5.236s.924.43.924.43.186 2.02.186 2.02c.016.177.125.332.287.407l5.009 2.337c.15.069.324.061.466-.023s.234-.233.245-.398l.303-4.624s1.809.844 1.809.844.77 5.623.77 5.623c.023.168.13.314.284.385l2.744 1.28c1.599.745 2.37 2.543 1.873 4.183 0 0-4.273-1.992-4.273-1.992z"></path></g></g></svg>