<svg version="1.1" id="Capa_1" xmlns="http://www.w3.org/2000/svg" xmlns:xlink="http://www.w3.org/1999/xlink" x="0px" y="0px" viewBox="0 0 464 464" style="enable-background:new 0 0 464 464;" xml:space="preserve"><g><g><path d="M456,411.193H56v-16h8c4.418,0,8-3.582,8-8v-32c0-4.418-3.582-8-8-8H32c-4.418,0-8,3.582-8,8v32c0,4.418,3.582,8,8,8h8v16 H8c-4.418,0-8,3.582-8,8s3.582,8,8,8h448c4.418,0,8-3.582,8-8S460.418,411.193,456,411.193z M40,363.193h16v16H40V363.193z"></path></g></g><g><g><path d="M398.768,292.465c-6.024-17.112-25.024-34.992-56.528-53.184l-49.832-28.8l-2.616-136c-0.062-3.146-1.962-5.964-4.856-7.2 l-36.8-15.712c-4.062-1.739-8.764,0.143-10.503,4.205c-0.022,0.052-0.044,0.103-0.065,0.155l-40.192,99.72l-43.12-24.896 l5.016-72.592c0.222-3.235-1.532-6.284-4.44-7.72l-25.848-12.8c-3.959-1.961-8.759-0.342-10.72,3.617 c-0.044,0.09-0.087,0.18-0.128,0.271l-25.6,57.024c-10.764-0.336-21.199,3.739-28.888,11.28 c-9.13,8.938-13.199,21.842-10.848,34.4c0.328,1.728,0.688,3.464,1.064,5.224c3.945,18.076,15.3,33.664,31.296,42.96 L388.2,368.793c3.669,2.136,8.368,1.033,10.704-2.512l9.856-14.928C421.389,332.141,417.027,306.436,398.768,292.465z M395.4,342.585l-5.696,8.608L93.168,178.617c-12.102-7.039-20.688-18.84-23.664-32.52c-0.344-1.6-0.672-3.2-0.976-4.8 c-1.399-7.312,0.991-14.835,6.352-20c5.51-5.449,13.377-7.787,20.968-6.232c3.667,0.748,7.362-1.146,8.896-4.56l24.608-54.776 l13.6,6.728l-4.984,72.224c-0.207,3.053,1.346,5.957,4,7.48l55.416,32c3.825,2.211,8.719,0.903,10.93-2.922 c0.188-0.326,0.354-0.665,0.494-1.014L249.4,69.545l24.488,10.448l2.608,135.368c0.054,2.804,1.571,5.374,4,6.776l53.744,31.024 c28.64,16.536,46.4,33,49.968,46.352c0.506,1.89,1.687,3.53,3.32,4.608C400.293,312.589,403.811,329.782,395.4,342.585z"></path></g></g></svg>